{"title":"The Blue Angel(1930)MPEG-4[DaScubaDude]","uid":14031211,"size":1002577145,"categoryP":"video","categoryS":"movies","magnet":"?xt=urn:btih:c133f9d035a112a1ca44fc75da34297363e10282&amp;dn=The+Blue+Angel%281930%29MPEG-4%5BDaScubaDude%5D&amp;tr=udp%3A%2F%2Ftracker.leechers-paradise.org%3A6969&amp;tr=udp%3A%2F%2Fzer0day.ch%3A1337&amp;tr=udp%3A%2F%2Fopen.demonii.com%3A1337&amp;tr=udp%3A%2F%2Ftracker.coppersurfer.tk%3A6969&amp;tr=udp%3A%2F%2Fexodus.desync.com%3A6969","seeders":0,"leechers":1,"uploader":"dascuba","files":1,"time":1458957685,"description":"The Blue Angel (1930)\r\n1h 40min | Drama, Musical | 5 December 1930 (USA)\r\nThe Blue Angel is a sleazy bar and the local boys go there to see Lola who is the dancer. The teacher goes there to confront his students only to fall for the dancer.\r\nDirector: Josef von Sternberg\r\nWriters: Heinrich Mann (novel), Carl Zuckmayer \r\nStars: Emil Jannings, Marlene Dietrich, Kurt Gerron \r\n\r\nGeneral\r\nComplete name                            : Blue AngelTHE_BLUE_ANGEL_DISC_2_Title1_1.mp4\r\nFormat                                   : MPEG-4\r\nFormat profile                           : Base Media\r\nCodec ID                                 : isom\r\nFile size                                : 956 MiB\r\nDuration                                 : 1h 40mn\r\nOverall bit rate mode                    : Variable\r\nOverall bit rate                         : 1 335 Kbps\r\nMovie name                               : THE_BLUE_ANGEL_DISC_2\r\nGenre                                    : Drama\r\nWriting application                      : Lavf54.6.100\r\n\r\nVideo\r\nID                                       : 1\r\nFormat                                   : AVC\r\nFormat/Info                              : Advanced Video Codec\r\nFormat profile                           :   \r\nFormat settings, CABAC                   : No\r\nFormat settings, ReFrames                : 6 frames\r\nFormat settings, GOP                     : M=1, N=60\r\nCodec ID                                 : avc1\r\nCodec ID/Info                            : Advanced Video Coding\r\nDuration                                 : 1h 40mn\r\nBit rate                                 : 1 194 Kbps\r\nWidth                                    : 720 pixels\r\nHeight                                   : 540 pixels\r\nDisplay aspect ratio                     : 4:3\r\nFrame rate mode                          : Constant\r\nFrame rate                               : 29.970 fps\r\nColor space                              : YUV\r\nChroma subsampling                       : 4:2:0\r\nBit depth                                : 8 bits\r\nScan type                                : Progressive\r\nBits/(Pixel*Frame)                       : 0.102\r\nStream size                              : 855 MiB (89%)\r\n\r\nAudio\r\nID                                       : 2\r\nFormat                                   : AAC\r\nFormat/Info                              : Advanced Audio Codec\r\nFormat profile                           : LC\r\nCodec ID                                 : 40\r\nDuration                                 : 1h 40mn\r\nBit rate mode                            : Variable\r\nBit rate                                 : 132 Kbps\r\nMaximum bit rate                         : 144 Kbps\r\nChannel(s)                               : 2 channels\r\nChannel positions                        : Front: L R\r\nSampling rate                            : 44.1 KHz\r\nCompression mode                         : Lossy\r\nStream size                              : 96.1 MiB (10%)","torrent":{"xt":"urn:btih:c133f9d035a112a1ca44fc75da34297363e10282","amp;dn":"The+Blue+Angel%281930%29MPEG-4%5BDaScubaDude%5D","amp;tr":["udp%3A%2F%2Ftracker.leechers-paradise.org%3A6969","udp%3A%2F%2Fzer0day.ch%3A1337","udp%3A%2F%2Fopen.demonii.com%3A1337","udp%3A%2F%2Ftracker.coppersurfer.tk%3A6969","udp%3A%2F%2Fexodus.desync.com%3A6969"],"infoHash":"c133f9d035a112a1ca44fc75da34297363e10282","infoHashBuffer":{"type":"Buffer","data":[193,51,249,208,53,161,18,161,202,68,252,117,218,52,41,115,99,225,2,130]},"announce":[],"urlList":[]}}